# xmcd CD database file
#
# Track frame offsets:
#	150
#	16342
#	37427
#	64522
#	86502
#	107120
#
# Disc length: 1659 seconds
#
# Revision: 2
# Processed by: cddbd v1.5.1PL0 Copyright (c) Steve Scherf et al.
# Submitted via: CDex 1.51
#
DISCID=49067906
DTITLE=Melanie C - Northern Star (Promo)
DYEAR=1999
DGENRE=Pop
TTITLE0=Goin' Down (Northern Star Sampler UK CD Single Version)
TTITLE1=Northern Star (Northern Star Sampler UK CD Single Version)
TTITLE2=I Turn To You (Northern Star Sampler UK CD Single Version)
TTITLE3=Never Be The Same (feat. Lisa "Left Eye" Lopez) (Northern Star Sampler UK CD Single Version)
TTITLE4=If I That Were Me (Northern Star Sampler UK CD Single Version)
TTITLE5=Ga Ga (Northern Star Sampler UK CD Single Version)
EXTD=YEAR: 1999
EXTT0=
EXTT1=
EXTT2=
EXTT3=
EXTT4=
EXTT5=
PLAYORDER=
